<svg viewBox="0 0 300 380" xmlns="http://www.w3.org/2000/svg" role="img" aria-label="立ち絵（仮のシルエット）">
  <g fill="#d8d4c8">
    <!-- 肩・上半身 -->
    <path d="M48 380 C48 312 86 282 150 282 C214 282 252 312 252 380 Z"/>
    <!-- 首 -->
    <rect x="131" y="246" width="38" height="56" rx="16"/>
    <!-- 後ろ髪（ロング） -->
    <path d="M150 36 C92 36 64 86 64 144 C64 184 74 224 60 276 C92 256 110 258 124 280 L124 150 L176 150 L176 280 C190 258 208 256 240 276 C226 224 236 184 236 144 C236 86 208 36 150 36 Z"/>
    <!-- 左ツインテール -->
    <path d="M70 150 C44 178 40 230 54 286 C70 252 82 250 96 262 C80 224 84 182 96 156 Z"/>
    <!-- 右ツインテール -->
    <path d="M230 150 C256 178 260 230 246 286 C230 252 218 250 204 262 C220 224 216 182 204 156 Z"/>
    <!-- 顔 -->
    <ellipse cx="150" cy="156" rx="54" ry="62"/>
    <!-- 前髪 -->
    <path d="M96 128 C104 96 126 78 150 78 C174 78 196 96 204 128 C186 114 168 110 150 114 C132 110 114 114 96 128 Z"/>
  </g>
</svg>
